<mxfile host="app.diagrams.net" agent="Mozilla/5.0 (Windows NT 10.0; Win64; x64) AppleWebKit/537.36 (KHTML, like Gecko) Chrome/141.0.0.0 Safari/537.36" version="28.2.7">
  <diagram id="C5RBs43oDa-KdzZeNtuy" name="Page-1">
    <mxGraphModel dx="2253" dy="795" grid="1" gridSize="10" guides="1" tooltips="1" connect="1" arrows="1" fold="1" page="1" pageScale="1" pageWidth="827" pageHeight="1169" math="0" shadow="0">
      <root>
        <mxCell id="WIyWlLk6GJQsqaUBKTNV-0" />
        <mxCell id="WIyWlLk6GJQsqaUBKTNV-1" parent="WIyWlLk6GJQsqaUBKTNV-0" />
        <mxCell id="NXgZ4A84toReOTDwIVSD-4" value="common/Corporate" style="swimlane;fontStyle=2;align=center;verticalAlign=top;childLayout=stackLayout;horizontal=1;startSize=26;horizontalStack=0;resizeParent=1;resizeLast=0;collapsible=1;marginBottom=0;rounded=0;shadow=0;strokeWidth=1;fontSize=12;" parent="WIyWlLk6GJQsqaUBKTNV-1" vertex="1">
          <mxGeometry x="346" y="10" width="136" height="160" as="geometry">
            <mxRectangle x="300" y="30" width="160" height="26" as="alternateBounds" />
          </mxGeometry>
        </mxCell>
        <mxCell id="NXgZ4A84toReOTDwIVSD-5" value="corpCd : PK&#xa;update_date&#xa;corporate_name&#xa;contract_id&#xa;created_at&#xa;store : FK" style="text;align=left;verticalAlign=top;spacingLeft=4;spacingRight=4;overflow=hidden;rotatable=0;points=[[0,0.5],[1,0.5]];portConstraint=eastwest;fontStyle=1" parent="NXgZ4A84toReOTDwIVSD-4" vertex="1">
          <mxGeometry y="26" width="136" height="94" as="geometry" />
        </mxCell>
        <mxCell id="NXgZ4A84toReOTDwIVSD-6" value="" style="line;html=1;strokeWidth=1;align=left;verticalAlign=middle;spacingTop=-1;spacingLeft=3;spacingRight=3;rotatable=0;labelPosition=right;points=[];portConstraint=eastwest;" parent="NXgZ4A84toReOTDwIVSD-4" vertex="1">
          <mxGeometry y="120" width="136" height="8" as="geometry" />
        </mxCell>
        <mxCell id="NXgZ4A84toReOTDwIVSD-7" value="法人リスト&#xa;" style="text;align=left;verticalAlign=top;spacingLeft=4;spacingRight=4;overflow=hidden;rotatable=0;points=[[0,0.5],[1,0.5]];portConstraint=eastwest;" parent="NXgZ4A84toReOTDwIVSD-4" vertex="1">
          <mxGeometry y="128" width="136" height="28" as="geometry" />
        </mxCell>
        <mxCell id="NXgZ4A84toReOTDwIVSD-8" style="edgeStyle=orthogonalEdgeStyle;rounded=0;orthogonalLoop=1;jettySize=auto;html=1;entryX=0.5;entryY=1;entryDx=0;entryDy=0;" parent="WIyWlLk6GJQsqaUBKTNV-1" source="NXgZ4A84toReOTDwIVSD-11" target="NXgZ4A84toReOTDwIVSD-4" edge="1">
          <mxGeometry relative="1" as="geometry" />
        </mxCell>
        <mxCell id="NXgZ4A84toReOTDwIVSD-9" value="0..." style="edgeLabel;html=1;align=center;verticalAlign=middle;resizable=0;points=[];" parent="NXgZ4A84toReOTDwIVSD-8" vertex="1" connectable="0">
          <mxGeometry x="-0.7429" relative="1" as="geometry">
            <mxPoint x="10" as="offset" />
          </mxGeometry>
        </mxCell>
        <mxCell id="NXgZ4A84toReOTDwIVSD-10" value="1" style="edgeLabel;html=1;align=center;verticalAlign=middle;resizable=0;points=[];" parent="NXgZ4A84toReOTDwIVSD-8" vertex="1" connectable="0">
          <mxGeometry x="0.6979" y="1" relative="1" as="geometry">
            <mxPoint x="11" as="offset" />
          </mxGeometry>
        </mxCell>
        <mxCell id="NXgZ4A84toReOTDwIVSD-11" value=" common/Store" style="swimlane;fontStyle=2;align=center;verticalAlign=top;childLayout=stackLayout;horizontal=1;startSize=26;horizontalStack=0;resizeParent=1;resizeLast=0;collapsible=1;marginBottom=0;rounded=0;shadow=0;strokeWidth=1;" parent="WIyWlLk6GJQsqaUBKTNV-1" vertex="1">
          <mxGeometry x="326" y="340" width="176" height="230" as="geometry">
            <mxRectangle x="300" y="30" width="160" height="26" as="alternateBounds" />
          </mxGeometry>
        </mxCell>
        <mxCell id="NXgZ4A84toReOTDwIVSD-12" value="store_cd : PK&#xa;update_date&#xa;store_name&#xa;url&#xa;defult_design_function : FK&#xa;is_smaregi_user&#xa;use_smaregi_bulk_sync&#xa;tax_round_ex_to_in : FK&#xa;tax_round_ex_to_ex : FK&#xa;corporate : FK&#xa;created_at" style="text;align=left;verticalAlign=top;spacingLeft=4;spacingRight=4;overflow=hidden;rotatable=0;points=[[0,0.5],[1,0.5]];portConstraint=eastwest;fontStyle=1" parent="NXgZ4A84toReOTDwIVSD-11" vertex="1">
          <mxGeometry y="26" width="176" height="164" as="geometry" />
        </mxCell>
        <mxCell id="NXgZ4A84toReOTDwIVSD-13" value="" style="line;html=1;strokeWidth=1;align=left;verticalAlign=middle;spacingTop=-1;spacingLeft=3;spacingRight=3;rotatable=0;labelPosition=right;points=[];portConstraint=eastwest;" parent="NXgZ4A84toReOTDwIVSD-11" vertex="1">
          <mxGeometry y="190" width="176" height="8" as="geometry" />
        </mxCell>
        <mxCell id="NXgZ4A84toReOTDwIVSD-14" value="店舗リスト" style="text;align=left;verticalAlign=top;spacingLeft=4;spacingRight=4;overflow=hidden;rotatable=0;points=[[0,0.5],[1,0.5]];portConstraint=eastwest;" parent="NXgZ4A84toReOTDwIVSD-11" vertex="1">
          <mxGeometry y="198" width="176" height="32" as="geometry" />
        </mxCell>
        <mxCell id="NXgZ4A84toReOTDwIVSD-15" style="edgeStyle=orthogonalEdgeStyle;rounded=0;orthogonalLoop=1;jettySize=auto;html=1;entryX=0.502;entryY=0.977;entryDx=0;entryDy=0;entryPerimeter=0;exitX=0.5;exitY=0;exitDx=0;exitDy=0;" parent="WIyWlLk6GJQsqaUBKTNV-1" source="Pno1ttmy5kFu47ZSBByE-0" target="NXgZ4A84toReOTDwIVSD-14" edge="1">
          <mxGeometry relative="1" as="geometry">
            <mxPoint x="480" y="390" as="targetPoint" />
            <mxPoint x="414" y="650" as="sourcePoint" />
          </mxGeometry>
        </mxCell>
        <mxCell id="NXgZ4A84toReOTDwIVSD-16" value="0..." style="edgeLabel;html=1;align=center;verticalAlign=middle;resizable=0;points=[];" parent="NXgZ4A84toReOTDwIVSD-15" vertex="1" connectable="0">
          <mxGeometry x="-0.7973" y="1" relative="1" as="geometry">
            <mxPoint x="11" as="offset" />
          </mxGeometry>
        </mxCell>
        <mxCell id="NXgZ4A84toReOTDwIVSD-17" value="1" style="edgeLabel;html=1;align=center;verticalAlign=middle;resizable=0;points=[];" parent="NXgZ4A84toReOTDwIVSD-15" vertex="1" connectable="0">
          <mxGeometry x="0.7257" y="1" relative="1" as="geometry">
            <mxPoint x="11" as="offset" />
          </mxGeometry>
        </mxCell>
        <mxCell id="NXgZ4A84toReOTDwIVSD-25" value="common/TaxRound" style="swimlane;fontStyle=2;align=center;verticalAlign=top;childLayout=stackLayout;horizontal=1;startSize=26;horizontalStack=0;resizeParent=1;resizeLast=0;collapsible=1;marginBottom=0;rounded=0;shadow=0;strokeWidth=1;" parent="WIyWlLk6GJQsqaUBKTNV-1" vertex="1">
          <mxGeometry x="-10" y="430" width="160" height="106" as="geometry">
            <mxRectangle x="300" y="30" width="160" height="26" as="alternateBounds" />
          </mxGeometry>
        </mxCell>
        <mxCell id="NXgZ4A84toReOTDwIVSD-26" value="rate_value:PK&#xa;rate_name" style="text;align=left;verticalAlign=top;spacingLeft=4;spacingRight=4;overflow=hidden;rotatable=0;points=[[0,0.5],[1,0.5]];portConstraint=eastwest;fontStyle=1" parent="NXgZ4A84toReOTDwIVSD-25" vertex="1">
          <mxGeometry y="26" width="160" height="44" as="geometry" />
        </mxCell>
        <mxCell id="NXgZ4A84toReOTDwIVSD-27" value="" style="line;html=1;strokeWidth=1;align=left;verticalAlign=middle;spacingTop=-1;spacingLeft=3;spacingRight=3;rotatable=0;labelPosition=right;points=[];portConstraint=eastwest;" parent="NXgZ4A84toReOTDwIVSD-25" vertex="1">
          <mxGeometry y="70" width="160" height="8" as="geometry" />
        </mxCell>
        <mxCell id="NXgZ4A84toReOTDwIVSD-28" value="税率" style="text;align=left;verticalAlign=top;spacingLeft=4;spacingRight=4;overflow=hidden;rotatable=0;points=[[0,0.5],[1,0.5]];portConstraint=eastwest;" parent="NXgZ4A84toReOTDwIVSD-25" vertex="1">
          <mxGeometry y="78" width="160" height="28" as="geometry" />
        </mxCell>
        <mxCell id="Pno1ttmy5kFu47ZSBByE-0" value="&lt;span style=&quot;font-style: italic; font-weight: 400; text-wrap-mode: nowrap;&quot;&gt;&amp;nbsp;esalpp/ProductDesign&lt;/span&gt;" style="swimlane;fontStyle=1;align=center;verticalAlign=top;childLayout=stackLayout;horizontal=1;startSize=26;horizontalStack=0;resizeParent=1;resizeParentMax=0;resizeLast=0;collapsible=1;marginBottom=0;whiteSpace=wrap;html=1;" parent="WIyWlLk6GJQsqaUBKTNV-1" vertex="1">
          <mxGeometry x="334" y="658" width="160" height="184" as="geometry" />
        </mxCell>
        <mxCell id="Pno1ttmy5kFu47ZSBByE-1" value="&lt;span style=&quot;font-weight: 700; text-wrap-mode: nowrap;&quot;&gt;function:PK&lt;/span&gt;&lt;br style=&quot;padding: 0px; margin: 0px; font-weight: 700; text-wrap-mode: nowrap;&quot;&gt;&lt;span style=&quot;font-weight: 700; text-wrap-mode: nowrap;&quot;&gt;inch&lt;/span&gt;&lt;br style=&quot;padding: 0px; margin: 0px; font-weight: 700; text-wrap-mode: nowrap;&quot;&gt;&lt;span style=&quot;font-weight: 700; text-wrap-mode: nowrap;&quot;&gt;update_date&lt;/span&gt;&lt;br style=&quot;padding: 0px; margin: 0px; font-weight: 700; text-wrap-mode: nowrap;&quot;&gt;&lt;span style=&quot;font-weight: 700; text-wrap-mode: nowrap;&quot;&gt;width&lt;/span&gt;&lt;br style=&quot;padding: 0px; margin: 0px; font-weight: 700; text-wrap-mode: nowrap;&quot;&gt;&lt;span style=&quot;font-weight: 700; text-wrap-mode: nowrap;&quot;&gt;height&lt;/span&gt;&lt;br style=&quot;padding: 0px; margin: 0px; font-weight: 700; text-wrap-mode: nowrap;&quot;&gt;&lt;span style=&quot;font-weight: 700; text-wrap-mode: nowrap;&quot;&gt;readable_name&lt;/span&gt;&lt;div&gt;&lt;span style=&quot;font-weight: 700; text-wrap-mode: nowrap;&quot;&gt;stores&lt;/span&gt;&lt;/div&gt;&lt;div&gt;&lt;span style=&quot;font-weight: 700; text-wrap-mode: nowrap;&quot;&gt;created_at&lt;/span&gt;&lt;/div&gt;" style="text;strokeColor=none;fillColor=none;align=left;verticalAlign=top;spacingLeft=4;spacingRight=4;overflow=hidden;rotatable=0;points=[[0,0.5],[1,0.5]];portConstraint=eastwest;whiteSpace=wrap;html=1;" parent="Pno1ttmy5kFu47ZSBByE-0" vertex="1">
          <mxGeometry y="26" width="160" height="124" as="geometry" />
        </mxCell>
        <mxCell id="Pno1ttmy5kFu47ZSBByE-2" value="" style="line;strokeWidth=1;fillColor=none;align=left;verticalAlign=middle;spacingTop=-1;spacingLeft=3;spacingRight=3;rotatable=0;labelPosition=right;points=[];portConstraint=eastwest;strokeColor=inherit;" parent="Pno1ttmy5kFu47ZSBByE-0" vertex="1">
          <mxGeometry y="150" width="160" height="8" as="geometry" />
        </mxCell>
        <mxCell id="Pno1ttmy5kFu47ZSBByE-3" value="商品デザイン" style="text;strokeColor=none;fillColor=none;align=left;verticalAlign=top;spacingLeft=4;spacingRight=4;overflow=hidden;rotatable=0;points=[[0,0.5],[1,0.5]];portConstraint=eastwest;whiteSpace=wrap;html=1;" parent="Pno1ttmy5kFu47ZSBByE-0" vertex="1">
          <mxGeometry y="158" width="160" height="26" as="geometry" />
        </mxCell>
        <mxCell id="AQlH8xHfYI-n4TNM5PLH-1" value="device/Device" style="swimlane;fontStyle=2;align=center;verticalAlign=top;childLayout=stackLayout;horizontal=1;startSize=26;horizontalStack=0;resizeParent=1;resizeLast=0;collapsible=1;marginBottom=0;rounded=0;shadow=0;strokeWidth=1;" vertex="1" parent="WIyWlLk6GJQsqaUBKTNV-1">
          <mxGeometry x="590" y="380" width="176" height="388" as="geometry">
            <mxRectangle x="300" y="30" width="160" height="26" as="alternateBounds" />
          </mxGeometry>
        </mxCell>
        <mxCell id="AQlH8xHfYI-n4TNM5PLH-2" value="device_id : PK&#xa;update_date&#xa;device_inch&#xa;mac_address&#xa;use_case&#xa;product_cd&#xa;free_design : FK&#xa;store : FK&#xa;zk_barcode&#xa;zk_battery&#xa;zk_sign&#xa;zk_hardware_version&#xa;zk_version&#xa;zk_voltage&#xa;zk_width&#xa;zk_height&#xa;device_company_type : FK&#xa;device_color_type : FK&#xa;image_path&#xa;gateway : FK&#xa;device_memo&#xa;created_at" style="text;align=left;verticalAlign=top;spacingLeft=4;spacingRight=4;overflow=hidden;rotatable=0;points=[[0,0.5],[1,0.5]];portConstraint=eastwest;fontStyle=1" vertex="1" parent="AQlH8xHfYI-n4TNM5PLH-1">
          <mxGeometry y="26" width="176" height="324" as="geometry" />
        </mxCell>
        <mxCell id="AQlH8xHfYI-n4TNM5PLH-3" value="" style="line;html=1;strokeWidth=1;align=left;verticalAlign=middle;spacingTop=-1;spacingLeft=3;spacingRight=3;rotatable=0;labelPosition=right;points=[];portConstraint=eastwest;" vertex="1" parent="AQlH8xHfYI-n4TNM5PLH-1">
          <mxGeometry y="350" width="176" height="8" as="geometry" />
        </mxCell>
        <mxCell id="AQlH8xHfYI-n4TNM5PLH-4" value="デバイスリスト" style="text;align=left;verticalAlign=top;spacingLeft=4;spacingRight=4;overflow=hidden;rotatable=0;points=[[0,0.5],[1,0.5]];portConstraint=eastwest;" vertex="1" parent="AQlH8xHfYI-n4TNM5PLH-1">
          <mxGeometry y="358" width="176" height="30" as="geometry" />
        </mxCell>
        <mxCell id="AQlH8xHfYI-n4TNM5PLH-5" value="device/Gateway" style="swimlane;fontStyle=2;align=center;verticalAlign=top;childLayout=stackLayout;horizontal=1;startSize=26;horizontalStack=0;resizeParent=1;resizeLast=0;collapsible=1;marginBottom=0;rounded=0;shadow=0;strokeWidth=1;" vertex="1" parent="WIyWlLk6GJQsqaUBKTNV-1">
          <mxGeometry x="590" y="910" width="176" height="230" as="geometry">
            <mxRectangle x="300" y="30" width="160" height="26" as="alternateBounds" />
          </mxGeometry>
        </mxCell>
        <mxCell id="AQlH8xHfYI-n4TNM5PLH-6" value="gateway_id : PK&#xa;update_date&#xa;mac_address&#xa;server&#xa;serial_number&#xa;is_active&#xa;hard_version&#xa;soft_version&#xa;store&#xa;created_at : FK&#xa;gw_memo" style="text;align=left;verticalAlign=top;spacingLeft=4;spacingRight=4;overflow=hidden;rotatable=0;points=[[0,0.5],[1,0.5]];portConstraint=eastwest;fontStyle=1" vertex="1" parent="AQlH8xHfYI-n4TNM5PLH-5">
          <mxGeometry y="26" width="176" height="164" as="geometry" />
        </mxCell>
        <mxCell id="AQlH8xHfYI-n4TNM5PLH-7" value="" style="line;html=1;strokeWidth=1;align=left;verticalAlign=middle;spacingTop=-1;spacingLeft=3;spacingRight=3;rotatable=0;labelPosition=right;points=[];portConstraint=eastwest;" vertex="1" parent="AQlH8xHfYI-n4TNM5PLH-5">
          <mxGeometry y="190" width="176" height="8" as="geometry" />
        </mxCell>
        <mxCell id="AQlH8xHfYI-n4TNM5PLH-8" value="ゲートウェイリスト" style="text;align=left;verticalAlign=top;spacingLeft=4;spacingRight=4;overflow=hidden;rotatable=0;points=[[0,0.5],[1,0.5]];portConstraint=eastwest;" vertex="1" parent="AQlH8xHfYI-n4TNM5PLH-5">
          <mxGeometry y="198" width="176" height="32" as="geometry" />
        </mxCell>
        <mxCell id="AQlH8xHfYI-n4TNM5PLH-9" style="edgeStyle=none;curved=1;rounded=0;orthogonalLoop=1;jettySize=auto;html=1;entryX=-0.017;entryY=0.683;entryDx=0;entryDy=0;entryPerimeter=0;fontSize=12;startSize=8;endSize=8;" edge="1" parent="WIyWlLk6GJQsqaUBKTNV-1" source="NXgZ4A84toReOTDwIVSD-26" target="NXgZ4A84toReOTDwIVSD-12">
          <mxGeometry relative="1" as="geometry" />
        </mxCell>
        <mxCell id="AQlH8xHfYI-n4TNM5PLH-10" value=" common/DeviceCompanyType" style="swimlane;fontStyle=2;align=center;verticalAlign=top;childLayout=stackLayout;horizontal=1;startSize=26;horizontalStack=0;resizeParent=1;resizeLast=0;collapsible=1;marginBottom=0;rounded=0;shadow=0;strokeWidth=1;" vertex="1" parent="WIyWlLk6GJQsqaUBKTNV-1">
          <mxGeometry x="890" y="380" width="210" height="150" as="geometry">
            <mxRectangle x="300" y="30" width="160" height="26" as="alternateBounds" />
          </mxGeometry>
        </mxCell>
        <mxCell id="AQlH8xHfYI-n4TNM5PLH-35" style="edgeStyle=none;curved=1;rounded=0;orthogonalLoop=1;jettySize=auto;html=1;fontSize=12;startSize=8;endSize=8;endArrow=none;endFill=0;" edge="1" parent="AQlH8xHfYI-n4TNM5PLH-10" source="AQlH8xHfYI-n4TNM5PLH-11">
          <mxGeometry relative="1" as="geometry">
            <mxPoint x="-60" y="68" as="targetPoint" />
          </mxGeometry>
        </mxCell>
        <mxCell id="AQlH8xHfYI-n4TNM5PLH-11" value="id : PK&#xa;update_date&#xa;company_name&#xa;description&#xa;created_at" style="text;align=left;verticalAlign=top;spacingLeft=4;spacingRight=4;overflow=hidden;rotatable=0;points=[[0,0.5],[1,0.5]];portConstraint=eastwest;fontStyle=1" vertex="1" parent="AQlH8xHfYI-n4TNM5PLH-10">
          <mxGeometry y="26" width="210" height="84" as="geometry" />
        </mxCell>
        <mxCell id="AQlH8xHfYI-n4TNM5PLH-12" value="" style="line;html=1;strokeWidth=1;align=left;verticalAlign=middle;spacingTop=-1;spacingLeft=3;spacingRight=3;rotatable=0;labelPosition=right;points=[];portConstraint=eastwest;" vertex="1" parent="AQlH8xHfYI-n4TNM5PLH-10">
          <mxGeometry y="110" width="210" height="8" as="geometry" />
        </mxCell>
        <mxCell id="AQlH8xHfYI-n4TNM5PLH-13" value="デバイス企業種別" style="text;align=left;verticalAlign=top;spacingLeft=4;spacingRight=4;overflow=hidden;rotatable=0;points=[[0,0.5],[1,0.5]];portConstraint=eastwest;" vertex="1" parent="AQlH8xHfYI-n4TNM5PLH-10">
          <mxGeometry y="118" width="210" height="32" as="geometry" />
        </mxCell>
        <mxCell id="AQlH8xHfYI-n4TNM5PLH-17" value=" common/DeviceColorType" style="swimlane;fontStyle=2;align=center;verticalAlign=top;childLayout=stackLayout;horizontal=1;startSize=26;horizontalStack=0;resizeParent=1;resizeLast=0;collapsible=1;marginBottom=0;rounded=0;shadow=0;strokeWidth=1;" vertex="1" parent="WIyWlLk6GJQsqaUBKTNV-1">
          <mxGeometry x="890" y="550" width="210" height="150" as="geometry">
            <mxRectangle x="300" y="30" width="160" height="26" as="alternateBounds" />
          </mxGeometry>
        </mxCell>
        <mxCell id="AQlH8xHfYI-n4TNM5PLH-36" style="edgeStyle=none;curved=0;rounded=0;orthogonalLoop=1;jettySize=auto;html=1;fontSize=12;startSize=8;endSize=8;endArrow=none;endFill=0;" edge="1" parent="AQlH8xHfYI-n4TNM5PLH-17" source="AQlH8xHfYI-n4TNM5PLH-18">
          <mxGeometry relative="1" as="geometry">
            <mxPoint x="-60" y="20" as="targetPoint" />
            <Array as="points">
              <mxPoint x="-60" y="70" />
            </Array>
          </mxGeometry>
        </mxCell>
        <mxCell id="AQlH8xHfYI-n4TNM5PLH-18" value="id : PK&#xa;update_date&#xa;color_code&#xa;description&#xa;created_at" style="text;align=left;verticalAlign=top;spacingLeft=4;spacingRight=4;overflow=hidden;rotatable=0;points=[[0,0.5],[1,0.5]];portConstraint=eastwest;fontStyle=1" vertex="1" parent="AQlH8xHfYI-n4TNM5PLH-17">
          <mxGeometry y="26" width="210" height="84" as="geometry" />
        </mxCell>
        <mxCell id="AQlH8xHfYI-n4TNM5PLH-19" value="" style="line;html=1;strokeWidth=1;align=left;verticalAlign=middle;spacingTop=-1;spacingLeft=3;spacingRight=3;rotatable=0;labelPosition=right;points=[];portConstraint=eastwest;" vertex="1" parent="AQlH8xHfYI-n4TNM5PLH-17">
          <mxGeometry y="110" width="210" height="8" as="geometry" />
        </mxCell>
        <mxCell id="AQlH8xHfYI-n4TNM5PLH-20" value="デバイス企業種別" style="text;align=left;verticalAlign=top;spacingLeft=4;spacingRight=4;overflow=hidden;rotatable=0;points=[[0,0.5],[1,0.5]];portConstraint=eastwest;" vertex="1" parent="AQlH8xHfYI-n4TNM5PLH-17">
          <mxGeometry y="118" width="210" height="32" as="geometry" />
        </mxCell>
        <mxCell id="AQlH8xHfYI-n4TNM5PLH-22" style="edgeStyle=none;curved=1;rounded=0;orthogonalLoop=1;jettySize=auto;html=1;entryX=0.5;entryY=0.933;entryDx=0;entryDy=0;entryPerimeter=0;fontSize=12;startSize=8;endSize=8;" edge="1" parent="WIyWlLk6GJQsqaUBKTNV-1" source="AQlH8xHfYI-n4TNM5PLH-5" target="AQlH8xHfYI-n4TNM5PLH-4">
          <mxGeometry relative="1" as="geometry" />
        </mxCell>
        <mxCell id="AQlH8xHfYI-n4TNM5PLH-24" style="edgeStyle=none;curved=1;rounded=0;orthogonalLoop=1;jettySize=auto;html=1;entryX=0.023;entryY=0.262;entryDx=0;entryDy=0;entryPerimeter=0;fontSize=12;startSize=8;endSize=8;exitX=0.994;exitY=0.75;exitDx=0;exitDy=0;exitPerimeter=0;" edge="1" parent="WIyWlLk6GJQsqaUBKTNV-1" source="NXgZ4A84toReOTDwIVSD-12" target="AQlH8xHfYI-n4TNM5PLH-2">
          <mxGeometry relative="1" as="geometry" />
        </mxCell>
        <mxCell id="AQlH8xHfYI-n4TNM5PLH-25" value="free/Designlistfree" style="swimlane;fontStyle=2;align=center;verticalAlign=top;childLayout=stackLayout;horizontal=1;startSize=26;horizontalStack=0;resizeParent=1;resizeLast=0;collapsible=1;marginBottom=0;rounded=0;shadow=0;strokeWidth=1;fontSize=12;" vertex="1" parent="WIyWlLk6GJQsqaUBKTNV-1">
          <mxGeometry x="890" y="110" width="136" height="160" as="geometry">
            <mxRectangle x="300" y="30" width="160" height="26" as="alternateBounds" />
          </mxGeometry>
        </mxCell>
        <mxCell id="AQlH8xHfYI-n4TNM5PLH-26" value="function : PK&#xa;inch&#xa;update_date&#xa;readable_name&#xa;store : FK&#xa;created_at" style="text;align=left;verticalAlign=top;spacingLeft=4;spacingRight=4;overflow=hidden;rotatable=0;points=[[0,0.5],[1,0.5]];portConstraint=eastwest;fontStyle=1" vertex="1" parent="AQlH8xHfYI-n4TNM5PLH-25">
          <mxGeometry y="26" width="136" height="94" as="geometry" />
        </mxCell>
        <mxCell id="AQlH8xHfYI-n4TNM5PLH-27" value="" style="line;html=1;strokeWidth=1;align=left;verticalAlign=middle;spacingTop=-1;spacingLeft=3;spacingRight=3;rotatable=0;labelPosition=right;points=[];portConstraint=eastwest;" vertex="1" parent="AQlH8xHfYI-n4TNM5PLH-25">
          <mxGeometry y="120" width="136" height="8" as="geometry" />
        </mxCell>
        <mxCell id="AQlH8xHfYI-n4TNM5PLH-28" value="法人リスト&#xa;" style="text;align=left;verticalAlign=top;spacingLeft=4;spacingRight=4;overflow=hidden;rotatable=0;points=[[0,0.5],[1,0.5]];portConstraint=eastwest;" vertex="1" parent="AQlH8xHfYI-n4TNM5PLH-25">
          <mxGeometry y="128" width="136" height="28" as="geometry" />
        </mxCell>
        <mxCell id="AQlH8xHfYI-n4TNM5PLH-29" style="edgeStyle=none;curved=0;rounded=0;orthogonalLoop=1;jettySize=auto;html=1;fontSize=12;startSize=8;endSize=8;exitX=0;exitY=0.149;exitDx=0;exitDy=0;exitPerimeter=0;" edge="1" parent="WIyWlLk6GJQsqaUBKTNV-1" source="AQlH8xHfYI-n4TNM5PLH-26" target="AQlH8xHfYI-n4TNM5PLH-2">
          <mxGeometry relative="1" as="geometry">
            <mxPoint x="810" y="570" as="targetPoint" />
            <Array as="points">
              <mxPoint x="830" y="150" />
              <mxPoint x="830" y="568" />
            </Array>
          </mxGeometry>
        </mxCell>
        <mxCell id="AQlH8xHfYI-n4TNM5PLH-30" style="edgeStyle=none;curved=0;rounded=0;orthogonalLoop=1;jettySize=auto;html=1;entryX=0;entryY=0.798;entryDx=0;entryDy=0;entryPerimeter=0;fontSize=12;startSize=8;endSize=8;exitX=1.011;exitY=0.159;exitDx=0;exitDy=0;exitPerimeter=0;" edge="1" parent="WIyWlLk6GJQsqaUBKTNV-1">
          <mxGeometry relative="1" as="geometry">
            <mxPoint x="501.99600000000015" y="437.99600000000004" as="sourcePoint" />
            <mxPoint x="888.06" y="256.93199999999996" as="targetPoint" />
            <Array as="points">
              <mxPoint x="568.06" y="435.92" />
              <mxPoint x="568.06" y="256.92" />
            </Array>
          </mxGeometry>
        </mxCell>
        <mxCell id="AQlH8xHfYI-n4TNM5PLH-31" value="eslapp/Product" style="swimlane;fontStyle=2;align=center;verticalAlign=top;childLayout=stackLayout;horizontal=1;startSize=20;horizontalStack=0;resizeParent=1;resizeLast=0;collapsible=1;marginBottom=0;rounded=0;shadow=0;strokeWidth=1;" vertex="1" parent="WIyWlLk6GJQsqaUBKTNV-1">
          <mxGeometry x="-230" y="40" width="176" height="398" as="geometry">
            <mxRectangle x="300" y="30" width="160" height="26" as="alternateBounds" />
          </mxGeometry>
        </mxCell>
        <mxCell id="AQlH8xHfYI-n4TNM5PLH-32" value="id : PK&#xa;update_date&#xa;product_cd&#xa;product_name&#xa;display_name&#xa;price_ex&#xa;price_in&#xa;retail_ex&#xa;retail_in&#xa;description&#xa;jan_cd&#xa;qr_url&#xa;assign_division&#xa;sale_start&#xa;sale_end&#xa;date_01&#xa;template : FK&#xa;store : FK&#xa;device : Fk&#xa;tax_division : FK&#xa;tax_rate : FK&#xa;omg_cd&#xa;created_at" style="text;align=left;verticalAlign=top;spacingLeft=4;spacingRight=4;overflow=hidden;rotatable=0;points=[[0,0.5],[1,0.5]];portConstraint=eastwest;fontStyle=1" vertex="1" parent="AQlH8xHfYI-n4TNM5PLH-31">
          <mxGeometry y="20" width="176" height="340" as="geometry" />
        </mxCell>
        <mxCell id="AQlH8xHfYI-n4TNM5PLH-33" value="" style="line;html=1;strokeWidth=1;align=left;verticalAlign=middle;spacingTop=-1;spacingLeft=3;spacingRight=3;rotatable=0;labelPosition=right;points=[];portConstraint=eastwest;" vertex="1" parent="AQlH8xHfYI-n4TNM5PLH-31">
          <mxGeometry y="360" width="176" height="8" as="geometry" />
        </mxCell>
        <mxCell id="AQlH8xHfYI-n4TNM5PLH-34" value="デバイスリスト" style="text;align=left;verticalAlign=top;spacingLeft=4;spacingRight=4;overflow=hidden;rotatable=0;points=[[0,0.5],[1,0.5]];portConstraint=eastwest;" vertex="1" parent="AQlH8xHfYI-n4TNM5PLH-31">
          <mxGeometry y="368" width="176" height="30" as="geometry" />
        </mxCell>
        <mxCell id="AQlH8xHfYI-n4TNM5PLH-37" style="edgeStyle=none;curved=1;rounded=0;orthogonalLoop=1;jettySize=auto;html=1;fontSize=12;startSize=8;endSize=8;" edge="1" parent="WIyWlLk6GJQsqaUBKTNV-1" source="AQlH8xHfYI-n4TNM5PLH-32" target="NXgZ4A84toReOTDwIVSD-12">
          <mxGeometry relative="1" as="geometry">
            <Array as="points" />
          </mxGeometry>
        </mxCell>
        <mxCell id="AQlH8xHfYI-n4TNM5PLH-38" style="edgeStyle=none;curved=0;rounded=0;orthogonalLoop=1;jettySize=auto;html=1;entryX=0.5;entryY=0;entryDx=0;entryDy=0;fontSize=12;startSize=8;endSize=8;" edge="1" parent="WIyWlLk6GJQsqaUBKTNV-1" source="AQlH8xHfYI-n4TNM5PLH-32" target="AQlH8xHfYI-n4TNM5PLH-1">
          <mxGeometry relative="1" as="geometry">
            <Array as="points">
              <mxPoint x="678" y="230" />
            </Array>
          </mxGeometry>
        </mxCell>
        <mxCell id="AQlH8xHfYI-n4TNM5PLH-41" style="edgeStyle=none;curved=0;rounded=0;orthogonalLoop=1;jettySize=auto;html=1;entryX=0.5;entryY=0;entryDx=0;entryDy=0;fontSize=12;startSize=8;endSize=8;" edge="1" parent="WIyWlLk6GJQsqaUBKTNV-1" source="AQlH8xHfYI-n4TNM5PLH-32" target="NXgZ4A84toReOTDwIVSD-25">
          <mxGeometry relative="1" as="geometry">
            <Array as="points">
              <mxPoint x="70" y="230" />
            </Array>
          </mxGeometry>
        </mxCell>
      </root>
    </mxGraphModel>
  </diagram>
</mxfile>
